<svg xmlns="http://www.w3.org/2000/svg" width="48.94" height="48.138" viewBox="0 0 48.94 48.138"><defs><style>.a{fill:#da8476;}</style></defs><g transform="translate(-16 -15.999)"><path class="a" d="M64.138,28.836H59.324a.8.8,0,0,0-.8.8v2.68l-4.974,2.133H51.3v-1.6a.8.8,0,0,0-.8-.8H48.337A8.82,8.82,0,1,0,34.613,23.18a6.413,6.413,0,1,0-9.206,8.865h-.582a.8.8,0,0,0-.8.8v3.209H20.814v-.8a.8.8,0,0,0-.8-.8H16.8a.8.8,0,0,0-.8.8v6.418a.8.8,0,0,0,.8.8h3.209a.8.8,0,0,0,.8-.8v-.8h3.209v6.418a.8.8,0,0,0,.8.8h1.109l1.382,2.766a.8.8,0,0,0,.718.444h1.6v2.407a.8.8,0,0,0,.8.8h3.209v8.825a.8.8,0,0,0,.8.8h6.418a.8.8,0,0,0,.8-.8V54.509h3.209a.8.8,0,0,0,.8-.8V51.3h1.6a.8.8,0,0,0,.722-.444l1.378-2.766H50.5a.8.8,0,0,0,.8-.8v-1.6h2.246l4.974,2.133V50.5a.8.8,0,0,0,.8.8h4.814a.8.8,0,0,0,.8-.8V29.638A.8.8,0,0,0,64.138,28.836ZM19.209,40.87H17.6V36.056h1.6ZM43.278,17.6a7.221,7.221,0,1,1-7.221,7.221A7.221,7.221,0,0,1,43.278,17.6ZM38.224,32.045H33.87A6.431,6.431,0,0,0,35.7,29.324,8.9,8.9,0,0,0,38.224,32.045Zm-13.4-4.814a4.814,4.814,0,1,1,4.814,4.814A4.814,4.814,0,0,1,24.825,27.231Zm.8,8.825h4.814V40.87H25.628Zm-4.814,3.209v-1.6h3.209v1.6ZM40.069,62.532H35.255V54.509h4.814ZM44.081,52.9H31.244V51.3H44.081ZM46.794,49.7H28.53l-.8-1.6H47.6Zm2.9-3.209H25.628V42.475h5.616a.8.8,0,0,0,.8-.8V35.254a.8.8,0,0,0-.8-.8H25.628v-.8H49.7Zm1.6-10.43h1.6v8.023H51.3Zm3.209,8.3v-8.57l4.012-1.719V46.072ZM63.336,49.7H60.127V30.44h3.209Z" transform="translate(0 0)"/><path class="a" d="M259.209,78.418A3.209,3.209,0,1,0,256,75.209,3.209,3.209,0,0,0,259.209,78.418Zm0-4.814a1.6,1.6,0,1,1-1.6,1.6A1.6,1.6,0,0,1,259.209,73.6Z" transform="translate(-215.931 -50.385)"/><path class="a" d="M130.407,104a2.407,2.407,0,1,0,2.407,2.407A2.407,2.407,0,0,0,130.407,104Zm0,3.209a.8.8,0,1,1,.8-.8A.8.8,0,0,1,130.407,107.209Z" transform="translate(-100.768 -79.176)"/><path class="a" d="M192,200.8v9.628a.8.8,0,0,0,.8.8h12.837a.8.8,0,0,0,.8-.8V200.8a.8.8,0,0,0-.8-.8H192.8A.8.8,0,0,0,192,200.8Zm1.6.8h11.232v8.023H193.6Z" transform="translate(-158.349 -165.548)"/></g></svg>