<svg xmlns="http://www.w3.org/2000/svg" width="35.203" height="45.133" viewBox="0 0 35.203 45.133"><defs><style>.a{fill:#da8476;}</style></defs><g transform="translate(-56.325)"><g transform="translate(69.997 4.022)"><g transform="translate(0)"><path class="a" d="M219.22,48.437a1.179,1.179,0,0,0-.958-.807l-1.278-.186-.571-1.158a1.186,1.186,0,0,0-2.128,0l-.571,1.158-1.278.186a1.186,1.186,0,0,0-.658,2.024l.925.9-.218,1.273a1.185,1.185,0,0,0,1.721,1.251l1.143-.6,1.143.6a1.186,1.186,0,0,0,1.722-1.251l-.218-1.273.925-.9A1.179,1.179,0,0,0,219.22,48.437Zm-2.4,1.413a.661.661,0,0,0-.19.585l.231,1.344-1.207-.635a.661.661,0,0,0-.615,0l-1.207.635.23-1.344a.661.661,0,0,0-.19-.585L212.9,48.9l1.349-.2a.661.661,0,0,0,.5-.362l.6-1.223.6,1.223a.661.661,0,0,0,.5.362l1.35.2Z" transform="translate(-211.419 -45.625)"/></g></g><g transform="translate(56.325)"><g transform="translate(0)"><path class="a" d="M88.87,20.3h-.028V1.995a1.995,1.995,0,0,0-3.929-.485H81.868a.661.661,0,1,0,0,1.322h2.985v10.8H63V2.832H78.855a.661.661,0,0,0,0-1.322H62.94a1.995,1.995,0,0,0-3.929.485V20.3h-.028a2.658,2.658,0,1,0,1.376,4.931L70.7,33.34,60.2,41.572a1.995,1.995,0,0,0,1,3.547,2.023,2.023,0,0,0,.238.014,1.978,1.978,0,0,0,1.23-.428l11.254-8.83L85.179,44.7a1.979,1.979,0,0,0,1.231.429,2.022,2.022,0,0,0,.238-.014,1.995,1.995,0,0,0,1-3.548l-5.3-4.161a.661.661,0,1,0-.816,1.04l5.3,4.16A.672.672,0,1,1,86,43.665L62.8,25.466c.863.155,1.776.29,2.73.405a.659.659,0,0,0,.116.118L79.142,36.577a.661.661,0,1,0,.816-1.04l-2.8-2.2,10.337-8.111A2.657,2.657,0,1,0,88.87,20.3ZM72.856,35.035l-11,8.631a.672.672,0,0,1-.834-1.055L71.766,34.18ZM58.983,24.291a1.335,1.335,0,1,1,1.335-1.335A1.337,1.337,0,0,1,58.983,24.291Zm1.35-3.623V1.995h0a.672.672,0,1,1,1.345,0V16.917a.661.661,0,1,0,1.322,0v-1.96H84.853v7.2a63.577,63.577,0,0,1-10.927.864A63.576,63.576,0,0,1,63,22.158V19.93a.661.661,0,0,0-1.322,0V21.9l-.288-.064A2.676,2.676,0,0,0,60.333,20.668Zm7.615,5.445c1.895.152,3.907.231,5.979.231s4.083-.079,5.98-.232L73.926,30.8Zm8.14,6.386L75,31.645l7.207-5.655a.659.659,0,0,0,.116-.118c.954-.115,1.867-.251,2.73-.405Zm-2.16-7.478a59.89,59.89,0,0,1-12.442-1.17,2.639,2.639,0,0,0,.141-.615,61.867,61.867,0,0,0,12.3,1.108,61.867,61.867,0,0,0,12.3-1.108,2.639,2.639,0,0,0,.141.615A59.956,59.956,0,0,1,73.926,25.022ZM87.52,20.668a2.675,2.675,0,0,0-1.057,1.163l-.288.064V1.995a.672.672,0,0,1,1.345,0Zm1.35,3.623a1.335,1.335,0,1,1,1.335-1.335A1.337,1.337,0,0,1,88.87,24.291Z" transform="translate(-56.325)"/></g></g></g></svg>