<svg xmlns="http://www.w3.org/2000/svg" width="41.894" height="41.893" viewBox="0 0 41.894 41.893"><defs><style>.a{fill:#da8476;}</style></defs><g transform="translate(0 -0.005)"><g transform="translate(4.418 0.005)"><g transform="translate(0 0)"><path class="a" d="M59.716,5.866H58.227c.224-1.658,1.141-1.741,1.563-1.78a.818.818,0,0,0,.744-.815V.823A.818.818,0,0,0,59.67.006C57.083.152,54,1.457,54,6.853v4.258A1.29,1.29,0,0,0,55.289,12.4h4.427A1.29,1.29,0,0,0,61,11.111V7.155A1.29,1.29,0,0,0,59.716,5.866Zm-.347,4.9H55.636V6.853c0-3.765,1.674-4.816,3.261-5.113V2.6c-1.1.334-2.357,1.319-2.357,4.084a.818.818,0,0,0,.818.818h2.01Z" transform="translate(-54 -0.005)"/></g></g><g transform="translate(12.784 0.005)"><g transform="translate(0 0)"><path class="a" d="M161.95,5.866h-1.489c.224-1.658,1.141-1.741,1.563-1.78a.818.818,0,0,0,.744-.815V.823A.818.818,0,0,0,161.9.006c-2.586.145-5.67,1.451-5.67,6.847v4.258a1.29,1.29,0,0,0,1.289,1.289h4.427a1.291,1.291,0,0,0,1.289-1.289V7.155A1.29,1.29,0,0,0,161.95,5.866Zm-.347,4.9H157.87V6.853c0-3.765,1.674-4.816,3.261-5.113V2.6c-1.1.334-2.357,1.319-2.357,4.084a.818.818,0,0,0,.818.818h2.01v3.261Z" transform="translate(-156.234 -0.005)"/></g></g><g transform="translate(21.929 6.376)"><path class="a" d="M269.4,78.1a.818.818,0,1,0,.24.578A.824.824,0,0,0,269.4,78.1Z" transform="translate(-268 -77.865)"/></g><g transform="translate(0 6.376)"><path class="a" d="M27.351,77.864H26.32a.818.818,0,1,0,0,1.636h1.031a12.908,12.908,0,0,1,2.663,25.537.818.818,0,0,0-.65.8v4.754l-5.04-5.04a.818.818,0,0,0-.579-.24h-9.2A12.91,12.91,0,0,1,3.256,86.143a.818.818,0,0,0-1.43-.8,14.546,14.546,0,0,0,12.717,21.6h8.864l6.2,6.2a.818.818,0,0,0,1.4-.579v-6.081a14.544,14.544,0,0,0-3.649-28.623Z" transform="translate(0 -77.864)"/></g><g transform="translate(10.059 14.527)"><path class="a" d="M143.894,177.492H123.755a.818.818,0,1,0,0,1.636h20.139a.818.818,0,1,0,0-1.636Z" transform="translate(-122.937 -177.492)"/></g><g transform="translate(10.059 18.891)"><path class="a" d="M143.894,230.825H123.755a.818.818,0,0,0,0,1.636h20.139a.818.818,0,1,0,0-1.636Z" transform="translate(-122.937 -230.825)"/></g><g transform="translate(10.059 23.255)"><path class="a" d="M143.894,284.158H123.755a.818.818,0,1,0,0,1.636h20.139a.818.818,0,1,0,0-1.636Z" transform="translate(-122.937 -284.158)"/></g><g transform="translate(19.464 27.619)"><path class="a" d="M249.424,337.492H238.689a.818.818,0,1,0,0,1.636h10.735a.818.818,0,1,0,0-1.636Z" transform="translate(-237.871 -337.492)"/></g><g transform="translate(14.847 27.619)"><path class="a" d="M182.277,337.491h-.013a.818.818,0,0,0,0,1.637h.013a.818.818,0,0,0,0-1.637Z" transform="translate(-181.446 -337.491)"/></g></g></svg>