<svg xmlns="http://www.w3.org/2000/svg" width="35.124" height="39.911" viewBox="0 0 35.124 39.911"><defs><style>.a{fill:#da8476;fill-rule:evenodd;}</style></defs><g transform="translate(-31)"><path class="a" d="M65.344,16.11H38.75l25.544-7.4a.78.78,0,0,0,.532-.966L63.489,3.13A4.364,4.364,0,0,0,59.316,0a4.319,4.319,0,0,0-1.2.171L34.132,7.118a4.348,4.348,0,0,0-2.96,5.374L32.478,17V35.573a4.343,4.343,0,0,0,4.338,4.338h9.367a.78.78,0,1,0,0-1.559H36.816a2.782,2.782,0,0,1-2.779-2.779V24.965H64.565V35.573a2.782,2.782,0,0,1-2.779,2.779H52.419a.78.78,0,0,0,0,1.559h9.367a4.343,4.343,0,0,0,4.338-4.338V16.89A.779.779,0,0,0,65.344,16.11ZM51.6,23.406l3.312-5.736h4.308l-3.312,5.736Zm-6.108,0L48.8,17.67h4.308L49.8,23.406Zm-6.108,0,3.312-5.736H47l-3.312,5.736Zm2.9-10.091L36.735,7.988l4.155-1.2a.771.771,0,0,0,.1.12l5.546,5.327-4.155,1.2A.773.773,0,0,0,42.281,13.314ZM52.727,3.505l5.546,5.327-4.155,1.2a.761.761,0,0,0-.1-.12L48.469,4.588l4.155-1.2A.775.775,0,0,0,52.727,3.505ZM46.86,5.2l5.546,5.327-4.155,1.2a.757.757,0,0,0-.1-.12L42.6,6.288l4.155-1.2A.821.821,0,0,0,46.86,5.2Zm11.69-3.536a2.758,2.758,0,0,1,.767-.109,2.8,2.8,0,0,1,2.676,2.005l1.12,3.865-3.127.906a.79.79,0,0,0-.1-.12L54.336,2.889ZM32.908,9.947a2.759,2.759,0,0,1,1.657-1.331l.458-.133a.792.792,0,0,0,.1.12l5.546,5.327L33.79,15.924l-1.12-3.866A2.759,2.759,0,0,1,32.908,9.947Zm1.129,7.723h6.858l-3.312,5.736H34.037Zm23.67,5.736,3.312-5.736h3.546v5.736Z"/><path class="a" d="M235.473,349.125a.779.779,0,0,0-.39-.675l-6.848-3.954a.78.78,0,0,0-1.169.675v7.908a.779.779,0,0,0,1.169.675l6.848-3.954A.779.779,0,0,0,235.473,349.125Zm-6.848,2.6v-5.207l4.51,2.6Z" transform="translate(-180.782 -317.546)"/><path class="a" d="M256.552,492a.78.78,0,1,0,.78.78A.781.781,0,0,0,256.552,492Z" transform="translate(-207.252 -453.648)"/></g></svg>