<svg xmlns="http://www.w3.org/2000/svg" width="96.596" height="105.559" viewBox="0 0 96.596 105.559"><g transform="translate(-11.643 -0.001)"><g transform="translate(11.643 0.001)"><path d="M108.15,65.672c-.3-.881-7.536-21.624-17.515-26.9-.6-.315-1.224-.636-1.866-.963,3-10.062,3.964-18.475,2-25.773C88.849,4.92,82.275-.362,75.81.021c-5.695.333-9.737,4.9-10.816,12.2a22.662,22.662,0,0,0-.066,6.324,40.45,40.45,0,0,0-2.519,3.974L12.22,102.451a2.089,2.089,0,0,0-.368,2.26l.473.849h.966a2.211,2.211,0,0,0,1.737-1.114l57.733-72.46a61.728,61.728,0,0,0,12.077,7.5c-1.784,5.517-4.148,11.567-6.947,18.218C70.21,75.985,73.79,91.076,79.2,94.522a1.633,1.633,0,1,0,1.754-2.755c-3.809-2.426-7.184-15.824-.052-32.793,2.745-6.526,5.083-12.5,6.881-18,.457.233.9.462,1.329.687,8.838,4.672,15.882,24.871,15.95,25.073a1.633,1.633,0,1,0,3.086-1.066ZM66.436,30.82,63.22,33.477,64.49,29.5c.375-1.164,1.074-3.227,2-5.44a20.42,20.42,0,0,0,2.713,4.325C67.971,29.53,66.93,30.411,66.436,30.82Zm5.142-4.728a16.649,16.649,0,0,1-3.062-6.229c1.581-2.818,3.472-5.1,5.47-5.1a2.905,2.905,0,0,1,1.577.47,2.782,2.782,0,0,1,1.34,2.252C77.051,19.855,74.325,23.275,71.578,26.092ZM85.816,36.317a55.587,55.587,0,0,1-11-6.887c2.169-2.8,6.416-8.942,5.85-13.447a5.293,5.293,0,0,0-2.228-3.769,5.845,5.845,0,0,0-3.4-1.106c-2.522,0-4.953,1.67-7.006,3.735a21.063,21.063,0,0,1,.2-2.144C69.071,6.951,71.907,3.517,76,3.277c.146-.008.3-.014.447-.014,4.289,0,9.516,3.5,11.168,9.621C89.372,19.407,88.514,27.082,85.816,36.317Z" transform="translate(-11.643 -0.001)"/></g></g></svg>