<svg xmlns="http://www.w3.org/2000/svg" width="69.357" height="99.194" viewBox="0 0 69.357 99.194"><defs><style>.a{fill:#3b2222;}</style></defs><g transform="translate(-4.547 0)"><path class="a" d="M72.784,11.762c-1.647-2.221-5.014-3.977-8.649-4.584a5.865,5.865,0,0,0-10.8-4.239c-.322.555-2.431,4.676-5.585,10.874A130.654,130.654,0,0,0,32.575,11.2c-4.207-.364-9.9-.394-10.749,3.544C20.664,20.1,28.49,26.712,37.619,33.773c-2.028,4.006-4.144,8.19-6.29,12.429-7.055-3.314-12.81-5.332-15.356-2.694-3.56,3.688-.417,9.037,3.216,15.231,1.037,1.765,2.1,3.586,3.055,5.434-9.6,18.979-17.7,35.021-17.7,35.021s8.909-13.6,19.8-30.243C26.1,73.991,26.167,79.07,21.685,83.7a.982.982,0,0,0,.023,1.385.97.97,0,0,0,.194.141.982.982,0,0,0,1.191-.167c5.6-5.8,5-12.147,2.572-18.139,3.429-5.243,7.019-10.733,10.569-16.17.075.039.151.075.22.112,10.283,5.083,19.993,9.883,22.775,4.892,2.75-4.919-4.9-11.537-14.08-18.66,4.85-7.429,9.227-14.145,12.5-19.172,8.039,1.621,13.161,2.182,14.864.276A4.764,4.764,0,0,0,72.784,11.762ZM23.319,62.034c-.8-1.47-1.637-2.91-2.445-4.282-3.229-5.506-6.024-10.26-3.5-12.879,1.667-1.726,7.235.371,13.063,3.081C28.054,52.676,25.652,57.418,23.319,62.034Zm34.2-7.229c-1.877,3.363-12.036-1.66-20.2-5.69l-.01,0c2.3-3.521,4.574-7,6.763-10.356C51.987,44.9,59.485,51.295,57.523,54.806Zm-19-22.8c-7.96-6.179-15.684-12.692-14.782-16.833.394-1.795,3.307-2.474,8.669-2.011a126.243,126.243,0,0,1,14.424,2.471C44.47,20.267,41.615,25.891,38.518,32ZM53.8,15.132c-.305-.069-.6-.131-.9-.2-.853-1.516,2.212-9.2,2.979-10.526a2.938,2.938,0,0,1,4.013-1.076,2.892,2.892,0,0,1,1.217,3.6,12.18,12.18,0,0,0-4.82,1.047.978.978,0,1,0,.82,1.775,9.583,9.583,0,0,1,2.668-.728C58.143,11.169,55.344,14.44,53.8,15.132ZM71.064,16.9c-1.057,1.175-6.375.423-12.272-.738,2.523-3.878,4.17-6.438,4.607-7.156,3.258.443,6.359,1.965,7.806,3.924A2.823,2.823,0,0,1,71.064,16.9Z" transform="translate(0 0)"/></g></svg>