<svg xmlns="http://www.w3.org/2000/svg" width="40.651" height="35.868" viewBox="0 0 40.651 35.868"><defs><style>.a{fill:#da8476;}</style></defs><path class="a" d="M70.209,336H60.92a.92.92,0,0,0,0,1.839h9.289a.92.92,0,0,0,0-1.839Z" transform="translate(-54.482 -307.489)"/><path class="a" d="M221.209,336H211.92a.92.92,0,0,0,0,1.839h9.289a.92.92,0,0,0,0-1.839Z" transform="translate(-191.594 -307.489)"/><path class="a" d="M84.1,86H60.92a.92.92,0,0,0,0,1.839H84.1A.92.92,0,0,0,84.1,86Z" transform="translate(-54.482 -80.482)"/><path class="a" d="M221.209,136H211.92a.92.92,0,0,0,0,1.839h9.289a.92.92,0,0,0,0-1.839Z" transform="translate(-191.594 -125.883)"/><path class="a" d="M221.209,186H211.92a.92.92,0,1,0,0,1.839h9.289a.92.92,0,1,0,0-1.839Z" transform="translate(-191.594 -171.285)"/><path class="a" d="M221.209,236H211.92a.92.92,0,1,0,0,1.839h9.289a.92.92,0,1,0,0-1.839Z" transform="translate(-191.594 -216.686)"/><path class="a" d="M221.209,286H211.92a.92.92,0,0,0,0,1.839h9.289a.92.92,0,0,0,0-1.839Z" transform="translate(-191.594 -262.088)"/><path class="a" d="M70.209,286H60.92a.92.92,0,0,0,0,1.839h9.289a.92.92,0,0,0,0-1.839Z" transform="translate(-54.482 -262.088)"/><path class="a" d="M70.209,136H60.92a.92.92,0,0,0-.92.92v9.289a.92.92,0,0,0,.92.92h9.289a.92.92,0,0,0,.92-.92V136.92A.92.92,0,0,0,70.209,136Zm-.92,9.289h-7.45v-7.45h7.45Z" transform="translate(-54.482 -125.883)"/><path class="a" d="M38.811,30.6H36.052V27.839A1.841,1.841,0,0,0,34.213,26H1.839A1.841,1.841,0,0,0,0,27.839V57.27a4.6,4.6,0,0,0,4.6,4.6H36.052a4.6,4.6,0,0,0,4.6-4.6V32.438A1.841,1.841,0,0,0,38.811,30.6Zm0,26.671a2.762,2.762,0,0,1-2.759,2.759H4.6A2.762,2.762,0,0,1,1.839,57.27V27.839H34.213V55.89a2.3,2.3,0,0,0,2.3,2.3.92.92,0,1,0,0-1.839.46.46,0,0,1-.46-.46V32.438h2.759Z" transform="translate(0 -26)"/></svg>