<svg xmlns="http://www.w3.org/2000/svg" width="33.872" height="35.841" viewBox="0 0 33.872 35.841"><defs><style>.a{fill:#da8476;}</style></defs><path class="a" d="M43.23,2.806V.822A.822.822,0,0,0,42.408,0H34.317A.822.822,0,0,0,33.5.822V2.806a2.99,2.99,0,0,0-2.617,2.962V26.634H21.415l.411-4.768h.506a4.932,4.932,0,0,0,.344-9.851l.512-5.937a4.773,4.773,0,0,0,4.57-4.763.822.822,0,1,0-1.644,0,3.128,3.128,0,0,1-2.783,3.1l.025-.287a3.5,3.5,0,1,0-6.98,0l.027.311a4.6,4.6,0,0,0,.175,9.2H17.2l.567,6.576h-.447a4.028,4.028,0,1,0,0,8.056H18.46l.588,6.811a.822.822,0,0,0,1.638,0l.588-6.811h9.6v.807A2.99,2.99,0,0,0,33.5,32.048v1.985a.822.822,0,0,0,.822.822h8.091a.822.822,0,0,0,.822-.822V32.048a2.99,2.99,0,0,0,2.617-2.962V5.769A2.99,2.99,0,0,0,43.23,2.806ZM19.867,25.455l-.31-3.589h.619Zm5.754-8.521a3.29,3.29,0,0,1-3.288,3.288h-.364l.567-6.57a3.292,3.292,0,0,1,3.086,3.281ZM16.578,12a2.959,2.959,0,0,1-.033-5.918L17.056,12ZM18.2,6.083h.849V7.234a.822.822,0,0,0,1.644,0V3.781a.822.822,0,0,0-1.644,0v.658h-.991l-.039-.448a1.859,1.859,0,1,1,3.7,0l-1.4,16.231h-.9Zm-.877,20.551a2.384,2.384,0,1,1,0-4.768h.588l.411,4.768Zm26.885.022L32.53,29.227a1.357,1.357,0,0,1-.008-.141V27.738L44.2,25.165v1.491Zm0-3.174L32.522,26.054V24.563L44.2,21.991Zm0-3.174L32.522,22.88V21.389L44.2,18.817v1.491Zm0-3.174L32.522,19.706V18.215L44.2,15.642Zm0-3.174L32.522,16.531V15.041L44.2,12.468Zm0-3.174L32.522,13.357V11.866L44.2,9.294v1.491Zm0-3.174L32.522,10.183V8.692L44.2,6.119ZM41.586,1.644V2.783H35.139V1.644ZM33.864,4.427h9a1.334,1.334,0,0,1,.641.163L32.522,7.009V5.769a1.343,1.343,0,0,1,1.342-1.342Zm1.275,28.784V32.072h6.447v1.139Zm7.722-2.783h-8.14L44.2,28.339v.746A1.343,1.343,0,0,1,42.861,30.428Z" transform="translate(-11.975)"/></svg>